<svg width="270" height="46" viewBox="0 0 270 46" fill="none" xmlns="http://www.w3.org/2000/svg">
<path d="M69.9294 42.2638V44.2438H72.6036C72.9257 44.2583 73.2407 44.1454 73.4803 43.9296C73.5746 43.8402 73.6498 43.7326 73.7012 43.6133C73.7527 43.4939 73.7795 43.3654 73.7799 43.2355C73.7786 43.1161 73.7537 42.9982 73.7067 42.8885C73.6597 42.7788 73.5914 42.6794 73.5059 42.5962C73.4034 42.4906 73.2807 42.4068 73.1452 42.3497C73.0096 42.2926 72.8639 42.2634 72.7168 42.2638H69.9294ZM69.9294 39.8709V41.65H72.5305C72.6574 41.6558 72.7841 41.6361 72.9033 41.5922C73.0225 41.5483 73.1318 41.481 73.2246 41.3943C73.3108 41.308 73.3791 41.2054 73.4255 41.0925C73.4719 40.9797 73.4955 40.8588 73.4949 40.7367C73.4951 40.5184 73.4099 40.3086 73.2575 40.1522C73.1443 40.0523 73.0124 39.976 72.8693 39.9277C72.7263 39.8794 72.5751 39.8601 72.4245 39.8709H69.9294ZM69.1659 44.9196V39.1987H72.4903C72.7446 39.1843 72.9992 39.2212 73.2389 39.3072C73.4786 39.3932 73.6987 39.5265 73.8858 39.6992C74.0039 39.8176 74.0969 39.9585 74.1597 40.1134C74.2224 40.2684 74.2535 40.4344 74.2511 40.6016C74.2563 40.8625 74.1809 41.1186 74.0351 41.335C73.8893 41.5514 73.6802 41.7176 73.4365 41.8108C73.7627 41.8797 74.0538 42.0623 74.2579 42.3259C74.4619 42.5895 74.5657 42.9171 74.5507 43.2501C74.5511 43.4726 74.5051 43.6927 74.4158 43.8965C74.3265 44.1003 74.1958 44.2832 74.0319 44.4338C73.8344 44.6103 73.6029 44.7448 73.3517 44.8289C73.1005 44.9131 72.8347 44.9452 72.5707 44.9233L69.1659 44.9196Z" fill="#1B3340"/>
<path d="M80.7355 42.2491H78.4194V44.2474H82.4599V44.9233H77.6559V39.1987H82.2589V39.8746H78.4194V41.5733H80.7355V42.2491Z" fill="#1B3340"/>
<path d="M89.8795 39.1987L87.5305 42.2418V44.9233H86.767V42.2418L84.418 39.1987H85.3824L87.1798 41.566L88.9845 39.1987H89.8795Z" fill="#1B3340"/>
<path d="M94.9392 44.3972C95.2537 44.4097 95.5675 44.3584 95.8618 44.2466C96.1561 44.1348 96.4248 43.9647 96.6518 43.7466C96.8787 43.5284 97.0593 43.2667 97.1827 42.977C97.306 42.6874 97.3696 42.3758 97.3696 42.061C97.3696 41.7462 97.306 41.4346 97.1827 41.145C97.0593 40.8553 96.8787 40.5935 96.6518 40.3754C96.4248 40.1572 96.1561 39.9871 95.8618 39.8753C95.5675 39.7635 95.2537 39.7123 94.9392 39.7248C94.6246 39.7123 94.3107 39.7635 94.0164 39.8753C93.7221 39.9871 93.4534 40.1572 93.2265 40.3754C92.9995 40.5935 92.819 40.8553 92.6956 41.145C92.5723 41.4346 92.5087 41.7462 92.5087 42.061C92.5087 42.3758 92.5723 42.6874 92.6956 42.977C92.819 43.2667 92.9995 43.5284 93.2265 43.7466C93.4534 43.9647 93.7221 44.1348 94.0164 44.2466C94.3107 44.3584 94.6246 44.4097 94.9392 44.3972ZM94.9392 39.0489C95.5291 39.0797 96.097 39.2829 96.5725 39.6334C97.048 39.9839 97.4101 40.4663 97.6141 41.0207C97.818 41.5751 97.8547 42.1772 97.7196 42.7523C97.5846 43.3274 97.2837 43.8501 96.8543 44.2558C96.4249 44.6615 95.8859 44.9322 95.3041 45.0344C94.7222 45.1366 94.1232 45.0658 93.5813 44.8307C93.0393 44.5957 92.5783 44.2067 92.2554 43.7121C91.9324 43.2175 91.7618 42.6389 91.7645 42.0482C91.7894 41.23 92.1374 40.455 92.7324 39.8929C93.3274 39.3308 94.1209 39.0273 94.9392 39.0489Z" fill="#1B3340"/>
<path d="M106.154 39.1987V44.9233H105.46L101.822 40.5321H101.814V44.9233H101.051V39.1987H101.745L105.384 43.5899H105.391V39.1987H106.154Z" fill="#1B3340"/>
<path d="M112.109 44.2474C112.395 44.2703 112.682 44.233 112.953 44.138C113.224 44.043 113.471 43.8924 113.68 43.6958C114.101 43.2549 114.331 42.6653 114.319 42.0555C114.333 41.4612 114.112 40.8853 113.706 40.4518C113.495 40.2481 113.245 40.0913 112.969 39.9918C112.694 39.8923 112.401 39.8523 112.109 39.8746H110.356V44.2584L112.109 44.2474ZM109.592 44.9233V39.1987H112.149C112.55 39.1705 112.952 39.2269 113.33 39.3641C113.707 39.5013 114.052 39.7162 114.341 39.9951C114.861 40.5686 115.146 41.3173 115.138 42.0915C115.13 42.8657 114.83 43.6083 114.297 44.1707C114.012 44.4372 113.674 44.6417 113.306 44.7712C112.937 44.9007 112.546 44.9525 112.157 44.9233H109.592Z" fill="#1B3340"/>
<path d="M126.473 44.9233V40.5833H126.43L124.358 44.0648H124.201L122.133 40.5833H122.09V44.9233H121.363V39.1987H122.166L124.307 42.8008H124.325L126.463 39.1987H127.237V44.9233H126.473Z" fill="#1B3340"/>
<path d="M131.734 42.5926H134.05L132.918 40.0938H132.867L131.734 42.5926ZM129.908 44.9233L132.563 39.1987H133.294L135.95 44.9233H135.117L134.335 43.2063H131.478L130.708 44.9233H129.908Z" fill="#1B3340"/>
<path d="M139.355 39.1987H138.591V44.9233H139.355V39.1987Z" fill="#1B3340"/>
<path d="M147.896 39.1987V44.9233H147.202L143.563 40.5321H143.556V44.9233H142.792V39.1987H143.486L147.125 43.5899H147.132V39.1987H147.896Z" fill="#1B3340"/>
<path d="M150.544 39.1987H155.754V39.8746H153.536V44.9233H152.773V39.8746H150.544V39.1987Z" fill="#1B3340"/>
<path d="M161.478 42.2491H159.166V44.2474H163.206V44.9233H158.402V39.1987H163.005V39.8746H159.166V41.5733H161.478V42.2491Z" fill="#1B3340"/>
<path d="M171.108 39.1987V44.9233H170.414L166.776 40.5321H166.768V44.9233H166.005V39.1987H166.699L170.337 43.5899H170.345V39.1987H171.108Z" fill="#1B3340"/>
<path d="M175.605 42.5926H177.921L176.789 40.0938H176.738L175.605 42.5926ZM173.779 44.9233L176.434 39.1987H177.165L179.821 44.9233H178.988L178.206 43.2063H175.349L174.579 44.9233H173.779Z" fill="#1B3340"/>
<path d="M187.566 39.1987V44.9233H186.872L183.237 40.5321H183.226V44.9233H182.462V39.1987H183.156L186.795 43.5899H186.806V39.1987H187.566Z" fill="#1B3340"/>
<path d="M196.374 43.9333C195.643 44.6597 194.656 45.0692 193.626 45.073C193.222 45.0892 192.819 45.0237 192.441 44.8807C192.062 44.7376 191.717 44.5199 191.424 44.2404C191.132 43.9609 190.898 43.6255 190.738 43.2539C190.578 42.8824 190.495 42.4825 190.493 42.078C190.49 41.6735 190.57 41.2727 190.726 40.8995C190.882 40.5262 191.111 40.1882 191.4 39.9056C191.69 39.6229 192.033 39.4014 192.41 39.2542C192.787 39.107 193.189 39.0372 193.594 39.0489C194.558 39.0415 195.491 39.3916 196.213 40.0317L195.698 40.5395C195.126 40.0215 194.383 39.7316 193.612 39.7248C193.297 39.7142 192.984 39.7672 192.69 39.8807C192.397 39.9941 192.129 40.1657 191.903 40.3851C191.678 40.6045 191.499 40.8672 191.377 41.1574C191.255 41.4477 191.193 41.7596 191.195 42.0743C191.197 42.389 191.262 42.7002 191.387 42.9891C191.512 43.278 191.694 43.5387 191.922 43.7556C192.15 43.9725 192.419 44.1412 192.714 44.2514C193.009 44.3617 193.323 44.4113 193.637 44.3972C194.054 44.3929 194.465 44.3053 194.847 44.1397C195.229 43.9741 195.574 43.7337 195.862 43.4328L196.374 43.9333Z" fill="#1B3340"/>
<path d="M202.23 42.2491H199.914V44.2474H203.958V44.9233H199.15V39.1987H203.753V39.8746H199.914V41.5733H202.23V42.2491Z" fill="#1B3340"/>
<path d="M44.0356 19.8807H56.9678L56.6245 18.9308L50.5638 3.51437L44.1232 19.614L44.0356 19.8807ZM64.0039 26.3943L64.3436 27.3441H59.8831L59.6931 26.8875L58.0273 22.5365L57.6108 21.5502H43.3634L42.9396 22.5365L41.197 26.8911L41.0071 27.3478H39.1805L39.5458 26.398L49.4715 1.92158L50.0779 0.368976H53.7311L53.9211 0.821968L64.0039 26.3943Z" fill="#1B3340"/>
<path d="M76.0229 0.328774V27.3441H71.8948V0.328774H76.0229Z" fill="#1B3340"/>
<path d="M107.47 0.328774H109.135V27.3441H106.637L87.5414 6.84606V27.3441H85.8719V0.328774H87.6547L107.47 21.5465V0.328774Z" fill="#1B3340"/>
<path d="M115.879 0.255728H140.049L139.482 1.92158H130.01V27.3441H125.918V1.92158H116.449L115.879 0.255728Z" fill="#1B3340"/>
<path d="M145.317 19.8807H158.234L157.895 18.9308L151.834 3.51437L145.393 19.614L145.317 19.8807ZM165.281 26.3943L165.625 27.3441H161.153L160.963 26.8875L159.297 22.5365L158.881 21.5502H144.633L144.217 22.5365L142.474 26.8911L142.284 27.3478H140.458L140.823 26.398L150.749 1.92158L151.355 0.368976H155.009L155.199 0.821968L165.281 26.3943Z" fill="#1B3340"/>
<path d="M177.293 0.328774V27.3441H173.161V0.328774H177.293Z" fill="#1B3340"/>
<path d="M208.736 0.328774H210.406V27.3441H207.903L188.808 6.84606V27.3441H187.142V0.328774H188.925L208.736 21.5465V0.328774Z" fill="#1B3340"/>
<path d="M224.31 17.3782V25.6016H238.893L237.567 27.3441H220.255V0.328774H239.236L237.567 1.99828H224.31V11.0509H238.707L237.377 12.7204H224.31V14.7662H224.269V17.3782H224.31Z" fill="#1B3340"/>
<path d="M255.3 25.8646C262.345 25.8646 265.868 21.8461 265.868 13.8091C265.899 12.0351 265.662 10.2667 265.167 8.56308C264.815 7.28549 264.217 6.08908 263.406 5.0414C262.701 4.19779 261.831 3.50773 260.849 3.01388C259.975 2.54583 259.037 2.20742 258.065 2.00925C257.147 1.84143 256.215 1.7595 255.281 1.7645H251V25.8573L255.3 25.8646ZM255.3 0.292251C259.742 0.292251 263.303 1.49781 265.982 3.90892C268.661 6.32002 270 9.62251 270 13.8164C270 17.9079 268.408 21.3432 265.225 24.122C262.722 26.2701 259.413 27.3441 255.3 27.3441H247.003V1.79006C247.003 1.7243 247.003 1.62567 246.981 1.48685C246.959 1.34803 246.981 1.21286 246.981 1.08865V0.690458C246.981 0.556722 246.995 0.423322 247.021 0.292251H255.3Z" fill="#1B3340"/>
<path d="M3.85777 6.06064L15.8293 24.3229L27.1944 3.63857V27.0117H30.906V0H27.3076L17.1919 18.3354L5.14368 0H0" fill="#1B3340"/>
<path d="M0.00366211 23.7603L3.27327 20.1948L6.64153 23.7713L3.32442 27.3478L0.00366211 23.7603Z" fill="#1B3340"/>
</svg>
